<svg version="1.1" id="Layer_1" xmlns="http://www.w3.org/2000/svg" xmlns:xlink="http://www.w3.org/1999/xlink" x="0px" y="0px"
	 viewBox="0 0 213.9 186.6" style="enable-background:new 0 0 213.9 186.6;" xml:space="preserve">
<style type="text/css">
	.st0{fill:#343C43;}
	.st1{fill:#343C43;stroke:#FFFFFF;stroke-width:2;stroke-miterlimit:10;}
	.st2{fill:#FFFFFF;}
	.st3{enable-background:new    ;}
</style>
<title>logo</title>
<g id="Layer_2">
	<g id="Layer_1-2">
		<path class="st0" d="M157.9,0H56c-1.8,0-3.5,1-4.4,2.5L0.7,90.8c-0.9,1.6-0.9,3.5,0,5.1L51.6,184c0.9,1.6,2.6,2.6,4.4,2.6h101.9
			c1.8,0,3.5-1,4.4-2.5l50.9-88.2c0.9-1.6,0.9-3.5,0-5.1L162.3,2.5C161.4,1,159.7,0,157.9,0z"/>
		<path class="st1" d="M153.2,6.9H60.7c-2.2,0-4.3,1.2-5.5,3.1L9,90.1c-1.1,1.9-1.1,4.3,0,6.3l46.3,80.1c1.1,1.9,3.2,3.1,5.5,3.1
			h92.5c2.2,0,4.3-1.2,5.4-3.1l46.2-80.1c1.1-1.9,1.1-4.3,0-6.3L158.6,10C157.5,8.1,155.4,6.9,153.2,6.9z"/>
		<rect x="134.5" y="99.6" class="st2" width="15.8" height="2.1">
            <animate attributeType="XML" attributeName="fill" values="#343c43;#fff;#fff;#343c43" dur="0.8s" repeatCount="indefinite"/>
        </rect>
		<g class="st3">
			<path class="st2" d="M79.2,114.1l-1.4,3.4l-0.9-0.3c-0.9-0.3-1.7-0.5-2.2-0.6c-0.6-0.1-1.2-0.2-2.1-0.2c-1.3,0-2.5,0.4-3.5,1.1
				c-1,0.7-1.8,1.8-2.4,3.1c-0.6,1.3-0.9,2.9-0.9,4.7c0,1.6,0.3,3.1,0.8,4.4c0.5,1.3,1.3,2.4,2.3,3.2c1,0.8,2.2,1.2,3.5,1.2
				c1.8,0,3.6-0.4,5.4-1.1l1.8,3.5c-0.9,0.5-2,0.9-3.3,1.2c-1.3,0.3-2.5,0.4-3.6,0.4c-2.5,0-4.6-0.6-6.4-1.7c-1.8-1.1-3.1-2.6-4-4.5
				c-0.9-1.9-1.3-4.1-1.3-6.5c0-2.5,0.5-4.7,1.5-6.7c1-2,2.4-3.5,4.2-4.6c1.8-1.1,3.9-1.6,6.2-1.6c0.9,0,1.9,0.1,3.2,0.4
				C77.1,113.2,78.2,113.6,79.2,114.1z"/>
			<path class="st2" d="M93.2,112.5c2.5,0,4.6,0.6,6.5,1.7c1.8,1.1,3.2,2.6,4.2,4.6c1,1.9,1.4,4.1,1.4,6.5c0,2.5-0.5,4.7-1.5,6.7
				s-2.4,3.5-4.2,4.5c-1.8,1.1-3.9,1.7-6.3,1.7c-2.5,0-4.6-0.6-6.4-1.7c-1.8-1.1-3.2-2.6-4.2-4.5c-1-1.9-1.4-4.1-1.4-6.4
				c0-2.5,0.5-4.7,1.5-6.6c1-2,2.4-3.5,4.2-4.6C88.8,113.1,90.9,112.5,93.2,112.5z M86.1,125.4c0,1.7,0.3,3.2,0.9,4.6
				c0.6,1.3,1.4,2.4,2.5,3.1s2.3,1.1,3.8,1.1c1.3,0,2.6-0.3,3.7-1c1.1-0.7,2-1.7,2.6-3c0.6-1.4,1-3,1-5c0-1.7-0.3-3.2-0.9-4.5
				c-0.6-1.3-1.4-2.4-2.5-3.1s-2.3-1.1-3.8-1.1c-1.3,0-2.5,0.4-3.6,1.1c-1.1,0.7-2,1.8-2.6,3.1C86.4,122,86.1,123.6,86.1,125.4z"/>
			<path class="st2" d="M114.3,121.2v16.4h-4.7v-24.5h4.7l11.4,16.4v-16.4h4.7v24.5h-4.7L114.3,121.2z"/>
			<path class="st2" d="M141.1,123.6h7.7l0.7,3.6h-8.4v10.4h-4.7v-24.5h13.9l0.7,3.7h-10V123.6z"/>
		</g>
		<g class="st3">
			<path class="st2" d="M76.2,99.9V82.3h-1.3c-0.4,0-0.6-0.1-0.8-0.2C74,81.9,74,81.8,74,81.5c0-0.2,0.1-0.4,0.2-0.5
				c0.2-0.1,0.4-0.2,0.8-0.2h8c1.2,0,2.4,0.3,3.4,0.8c1,0.5,1.8,1.1,2.4,1.8c0.9,1.1,1.6,2.3,2.1,3.5c0.3,0.9,0.5,2,0.5,3.2v2
				c0,1.5-0.3,3-1,4.4c-0.7,1.4-1.8,2.7-3.3,3.7c-1.2,0.8-2.5,1.2-4,1.2h-8c-0.4,0-0.6-0.1-0.8-0.2c-0.2-0.1-0.2-0.3-0.2-0.5
				c0-0.2,0.1-0.4,0.2-0.5c0.2-0.1,0.4-0.2,0.8-0.2H76.2z M77.7,99.9h5.4c1.2,0,2.4-0.4,3.5-1.2c1.1-0.8,1.9-1.8,2.5-2.9
				s0.8-2.3,0.8-3.4v-2.7c0-0.9-0.1-1.7-0.4-2.5c-0.4-1-1-2-1.8-3c-0.4-0.5-1-1-1.9-1.4c-0.8-0.4-1.7-0.6-2.7-0.6h-5.4V99.9z"/>
			<path class="st2" d="M98.8,91.5v8.5h11.4v-4.4c0-0.4,0.1-0.6,0.2-0.8c0.1-0.2,0.3-0.2,0.5-0.2s0.4,0.1,0.5,0.2
				c0.1,0.2,0.2,0.4,0.2,0.8v5.9H95.4c-0.4,0-0.6-0.1-0.8-0.2c-0.2-0.1-0.2-0.3-0.2-0.5c0-0.2,0.1-0.4,0.2-0.5
				c0.2-0.1,0.4-0.2,0.8-0.2h2V82.3h-2c-0.4,0-0.6-0.1-0.8-0.2c-0.2-0.1-0.2-0.3-0.2-0.5c0-0.2,0.1-0.4,0.2-0.5
				c0.2-0.1,0.4-0.2,0.8-0.2h15.6v5.1c0,0.4-0.1,0.6-0.2,0.8c-0.1,0.2-0.3,0.2-0.5,0.2c-0.2,0-0.4-0.1-0.5-0.2
				c-0.1-0.2-0.2-0.4-0.2-0.8v-3.6H98.8V90h5.3v-1.7c0-0.4,0.1-0.6,0.2-0.8c0.1-0.2,0.3-0.2,0.5-0.2c0.2,0,0.4,0.1,0.5,0.2
				c0.1,0.2,0.2,0.4,0.2,0.8v4.8c0,0.4-0.1,0.6-0.2,0.8c-0.1,0.2-0.3,0.2-0.5,0.2c-0.2,0-0.4-0.1-0.5-0.2c-0.1-0.2-0.2-0.4-0.2-0.8
				v-1.7H98.8z"/>
			<path class="st2" d="M126.4,101.4h-2.1l-7.5-19.1h-1.1c-0.3,0-0.5,0-0.6-0.1c-0.1-0.1-0.2-0.1-0.3-0.3c-0.1-0.1-0.1-0.3-0.1-0.4
				c0-0.1,0-0.3,0.1-0.4c0.1-0.1,0.2-0.2,0.3-0.3s0.3-0.1,0.6-0.1h5.5c0.3,0,0.5,0,0.6,0.1s0.2,0.1,0.3,0.3c0.1,0.1,0.1,0.3,0.1,0.4
				c0,0.1,0,0.3-0.1,0.4c-0.1,0.1-0.2,0.2-0.3,0.3c-0.1,0.1-0.3,0.1-0.6,0.1h-2.8l6.9,17.7h0.1l6.8-17.7h-2.8c-0.3,0-0.5,0-0.6-0.1
				c-0.1-0.1-0.2-0.1-0.3-0.3c-0.1-0.1-0.1-0.3-0.1-0.4c0-0.1,0-0.3,0.1-0.4c0.1-0.1,0.2-0.2,0.3-0.3c0.1-0.1,0.3-0.1,0.6-0.1h5.5
				c0.3,0,0.5,0,0.6,0.1c0.1,0.1,0.2,0.1,0.3,0.3c0.1,0.1,0.1,0.3,0.1,0.4c0,0.1,0,0.3-0.1,0.4c-0.1,0.1-0.2,0.2-0.3,0.3
				c-0.1,0.1-0.3,0.1-0.6,0.1h-1.1L126.4,101.4z"/>
		</g>
		<g class="st3">
			<path class="st2" d="M85.4,36.6v30.6h-5.8V36.6H85.4z"/>
			<path class="st2" d="M98.9,49.7h9.6l0.9,4.6H98.9v13h-5.8V36.6h17.4l0.9,4.6H98.9V49.7z"/>
			<path class="st2" d="M114.4,65.2l1.3-4.7c1.1,0.6,2.4,1.1,3.8,1.5c1.4,0.4,2.7,0.7,3.9,0.7c1.8,0,3.2-0.3,4.1-0.9
				c0.9-0.6,1.4-1.4,1.4-2.5c0-0.8-0.4-1.4-1.1-2.1c-0.7-0.6-1.9-1.3-3.4-2.2l-1.4-0.8c-2-1.2-3.6-2.2-4.8-3.1
				c-1.2-0.9-2.2-1.9-3.1-3.1c-0.9-1.2-1.3-2.5-1.3-4c0-1.6,0.4-3,1.3-4.2s2.1-2.2,3.6-2.9c1.6-0.7,3.5-1.1,5.7-1.1
				c2.6,0,5.5,0.8,8.7,2.3l-1.9,4.7c-1.2-0.6-2.4-1.1-3.4-1.4c-1-0.3-2.1-0.5-3.3-0.5c-1.4,0-2.5,0.3-3.3,0.8
				c-0.9,0.5-1.3,1.3-1.3,2.3c0,0.9,0.3,1.6,1,2.2s1.8,1.3,3.3,2.2l1.4,0.8l1.3,0.8c1.8,1,3.2,1.9,4.2,2.7c1.1,0.8,1.9,1.7,2.6,2.8
				s1.1,2.4,1.1,3.9c0,1.7-0.4,3.1-1.3,4.4c-0.9,1.3-2.2,2.3-3.9,3c-1.7,0.7-3.8,1.1-6.2,1.1c-1.3,0-2.8-0.3-4.7-0.8
				C116.8,66.4,115.4,65.8,114.4,65.2z"/>
		</g>
		<g class="st3">
			<path class="st2" d="M97.9,164.1c0.5,0,0.9,0.1,1.3,0.3c0.4,0.2,0.7,0.4,0.9,0.8c0.2,0.3,0.3,0.7,0.3,1.1c0,0.5-0.1,1-0.4,1.4
				c-0.2,0.4-0.7,0.8-1.3,1.3l-1.1,0.9h3l0.1,1.2h-5.3v-1l2.4-2.1c0.4-0.4,0.7-0.7,0.9-0.9c0.2-0.3,0.3-0.5,0.3-0.7
				c0-0.3-0.1-0.5-0.4-0.7s-0.6-0.2-1-0.2c-0.5,0-1.2,0.2-1.9,0.6l-0.3-1.2C96.2,164.3,97,164.1,97.9,164.1z"/>
			<path class="st2" d="M101.2,167.6c0-0.7,0.1-1.3,0.4-1.8c0.3-0.5,0.7-1,1.2-1.3c0.5-0.3,1.1-0.5,1.7-0.5c0.6,0,1.2,0.2,1.7,0.5
				s0.9,0.7,1.2,1.3s0.4,1.1,0.4,1.8c0,0.7-0.1,1.3-0.4,1.9s-0.7,1-1.2,1.3c-0.5,0.3-1.1,0.5-1.7,0.5c-0.6,0-1.2-0.2-1.7-0.5
				c-0.5-0.3-0.9-0.7-1.2-1.3S101.2,168.3,101.2,167.6z M102.7,167.6c0,0.4,0.1,0.8,0.2,1.2c0.2,0.3,0.4,0.6,0.7,0.8
				c0.3,0.2,0.6,0.3,1,0.3s0.7-0.1,1-0.3c0.3-0.2,0.5-0.5,0.7-0.8s0.2-0.7,0.2-1.1c0-0.4-0.1-0.8-0.3-1.1s-0.4-0.6-0.7-0.8
				c-0.3-0.2-0.6-0.3-1-0.3c-0.4,0-0.7,0.1-1,0.3c-0.3,0.2-0.5,0.4-0.7,0.8C102.7,166.8,102.7,167.2,102.7,167.6z"/>
			<path class="st2" d="M111.8,164.3v6.8h-1.6V166l-1.4,0.5l-0.6-1.2l2.5-1.1H111.8z"/>
			<path class="st2" d="M115.7,163.4c0.5,0,0.9,0.1,1.3,0.3c0.4,0.2,0.7,0.4,0.9,0.8c0.2,0.3,0.3,0.7,0.3,1.1c0,0.3-0.1,0.6-0.3,0.9
				s-0.4,0.5-0.8,0.6c0.4,0.1,0.7,0.4,0.9,0.7c0.3,0.4,0.4,0.7,0.4,1.1c0,0.4-0.1,0.8-0.3,1.2c-0.2,0.4-0.5,0.7-1,0.9
				s-0.9,0.3-1.5,0.3c-0.6,0-1.1-0.1-1.5-0.3s-0.7-0.5-1-0.9c-0.2-0.4-0.3-0.8-0.3-1.2c0-0.4,0.1-0.8,0.4-1.1
				c0.3-0.4,0.6-0.6,0.9-0.7c-0.3-0.1-0.6-0.3-0.8-0.6c-0.2-0.3-0.3-0.6-0.3-0.9c0-0.4,0.1-0.7,0.3-1.1s0.5-0.6,0.9-0.8
				C114.8,163.4,115.2,163.4,115.7,163.4z M115.7,167.6c-0.4,0.1-0.8,0.2-1,0.5s-0.4,0.5-0.4,0.8c0,0.3,0.1,0.6,0.4,0.8
				c0.3,0.2,0.6,0.3,1,0.3c0.4,0,0.7-0.1,1-0.3c0.3-0.2,0.4-0.5,0.4-0.8c0-0.3-0.1-0.6-0.4-0.8S116.1,167.7,115.7,167.6z
				 M115.7,164.6c-0.3,0-0.5,0.1-0.8,0.3s-0.3,0.4-0.3,0.6c0,0.3,0.1,0.5,0.3,0.6s0.5,0.3,0.8,0.3c0.4-0.1,0.6-0.2,0.8-0.3
				c0.2-0.2,0.3-0.4,0.3-0.7c0-0.2-0.1-0.4-0.3-0.6C116.2,164.7,116,164.6,115.7,164.6z"/>
		</g>
	</g>
</g>
</svg>
