<svg xmlns="http://www.w3.org/2000/svg" viewBox="0 0 213.87 186.58"><defs><style>.cls-1,.cls-2{fill:#343c43;}.cls-2{stroke:#fff;stroke-miterlimit:10;stroke-width:2px;}.cls-3,.cls-4,.cls-5,.cls-6,.cls-7{fill:#fff;}.cls-4,.cls-5{font-size:36.1px;}.cls-4,.cls-6{font-family:Catamaran-ExtraBold, Catamaran;}.cls-4,.cls-6,.cls-7{font-weight:700;}.cls-5{font-family:CourierNewPSMT, Courier New;}.cls-6{font-size:45.07px;}.cls-7{font-size:12px;font-family:Catamaran-Bold, Catamaran;}</style></defs>
<title>IFS DEV CONF 2018</title>
<g id="Layer_2" data-name="Layer 2">
<g id="Layer_1-2" data-name="Layer 1">
<path class="cls-1" d="M157.86,0H56A5.09,5.09,0,0,0,51.6,2.54L.68,90.75a5.09,5.09,0,0,0,0,5.09L51.6,184A5.09,5.09,0,0,0,56,186.58H157.86a5.09,5.09,0,0,0,4.41-2.54l50.92-88.2a5.09,5.09,0,0,0,0-5.09L162.26,2.54A5.09,5.09,0,0,0,157.86,0Z"/>
<path class="cls-2" d="M153.19,6.88H60.68A6.29,6.29,0,0,0,55.23,10L9,90.14a6.29,6.29,0,0,0,0,6.29l46.26,80.12a6.29,6.29,0,0,0,5.45,3.15h92.51a6.29,6.29,0,0,0,5.45-3.15L204.9,96.44a6.29,6.29,0,0,0,0-6.29L158.64,10A6.29,6.29,0,0,0,153.19,6.88Z"/>
<rect class="cls-3" x="134.53" y="99.63" width="15.79" height="2.09">
<animate attributeType="XML" attributeName="fill" values="#343c43;#fff;#fff;#343c43" dur="0.8s" repeatCount="indefinite"/>
</rect>

<text class="cls-4" transform="translate(59.59 137.6)">CONF</text>
<text class="cls-5" transform="translate(71.17 101.41)">DEV</text>
<text class="cls-6" transform="translate(75.78 67.24)">IFS</text>
<text class="cls-7" transform="translate(95.08 171.07)">2018</text>
</g>
</g>
</svg>