<?xml version="1.0" standalone="no"?>
<!DOCTYPE svg PUBLIC "-//W3C//DTD SVG 20010904//EN"
 "http://www.w3.org/TR/2001/REC-SVG-20010904/DTD/svg10.dtd">
<svg version="1.0" xmlns="http://www.w3.org/2000/svg"
 width="428.000000pt" height="428.000000pt" viewBox="0 0 428.000000 428.000000"
 preserveAspectRatio="xMidYMid meet">
<metadata>
Created by potrace 1.11, written by Peter Selinger 2001-2013
</metadata>
<g transform="translate(0.000000,428.000000) scale(0.100000,-0.100000)"
fill="#000000" stroke="none">
<path d="M1077 3997 c-21 -7 -79 -93 -165 -247 -10 -19 -42 -73 -69 -120 -42
-71 -107 -183 -303 -525 -78 -136 -393 -680 -483 -835 -27 -47 -51 -101 -54
-120 -6 -39 -4 -43 120 -255 38 -66 81 -140 95 -165 14 -25 35 -61 47 -80 12
-19 25 -42 28 -50 4 -8 17 -31 28 -50 22 -36 192 -329 226 -390 11 -19 80
-138 153 -265 169 -292 153 -264 253 -439 50 -88 96 -156 112 -166 26 -17 89
-18 1082 -16 l1055 1 32 37 c17 20 43 58 57 85 14 26 118 208 231 403 365 631
430 744 454 787 13 23 80 138 147 255 153 264 149 255 154 292 3 25 -18 69
-112 230 -63 110 -115 201 -115 202 0 2 -26 47 -58 101 -33 54 -130 222 -217
373 -181 313 -403 698 -433 750 -12 19 -39 67 -61 106 -70 123 72 109 -1132
109 -577 0 -1059 -3 -1072 -8z"/>
</g>
</svg>
